<svg xmlns="http://www.w3.org/2000/svg" viewBox="0 0 311.28 164.41"><defs><style>.cls-1{fill:#22418b;}.cls-2{fill:#fff;}</style></defs><g id="Layer_2" data-name="Layer 2"><g id="Layer_1-2" data-name="Layer 1"><rect class="cls-1" x="4.25" y="3.56" width="302.78" height="157.29" rx="29.43"/><rect class="cls-1" x="73.43" y="-73.43" width="164.41" height="311.28" rx="33.68" transform="translate(237.85 -73.43) rotate(90)"/><path class="cls-2" d="M33.68,3.56H277.6A29.43,29.43,0,0,1,307,33V91.13a0,0,0,0,1,0,0H4.25a0,0,0,0,1,0,0V33A29.43,29.43,0,0,1,33.68,3.56Z"/><path class="cls-1" d="M21.37,72.77a16.8,16.8,0,0,1-6.78-6.31,15.81,15.81,0,0,1-2.3-8.13v-.58H24.76v.51a7.2,7.2,0,0,0,1.89,4.81,6.94,6.94,0,0,0,5.55,2.19,7.53,7.53,0,0,0,5-1.6,5.28,5.28,0,0,0,1.89-4.23,4.71,4.71,0,0,0-1.67-3.76,9.1,9.1,0,0,0-4.09-1.93l-5.83-1.17A26,26,0,0,1,18,48.2Q13.52,45,13.53,37.7a14.28,14.28,0,0,1,2.3-8.17,14.68,14.68,0,0,1,6.38-5.25,22.54,22.54,0,0,1,9.26-1.82,21.59,21.59,0,0,1,10.2,2.26,16,16,0,0,1,6.49,5.87,14.35,14.35,0,0,1,2.19,7.55v.36H37.88v-.22a6.7,6.7,0,0,0-1.64-4.34q-1.64-2-5.21-2a6.2,6.2,0,0,0-4.41,1.53,5.21,5.21,0,0,0-1.64,4,4.49,4.49,0,0,0,1.82,3.79,10.4,10.4,0,0,0,4.37,1.9l5.91,1.31a22.3,22.3,0,0,1,9.84,4.67Q51,52.57,51,59.14a14.69,14.69,0,0,1-2.48,8.45,16,16,0,0,1-6.82,5.62,23.33,23.33,0,0,1-9.73,2A22,22,0,0,1,21.37,72.77Z"/><path class="cls-1" d="M67.74,69.74Q61.8,64.25,61.8,52.21V23.48H73.1V51.41q0,13,9.92,13c3.55,0,6.07-1.2,7.58-3.58a17.33,17.33,0,0,0,2.26-9.4V23.48h11.3V52.21q0,12-5.94,17.53T83,75.25Q73.68,75.25,67.74,69.74Z"/><path class="cls-1" d="M149.66,64.6v9.92H116.78v-51h11.44l-.07,41.12Z"/><path class="cls-1" d="M195.67,33.4H182.26V74.52H171V33.4H157.54V23.48h38.13Z"/><path class="cls-1" d="M231,62.71H214.7l-3.64,11.81H199.54l18.15-51h10.58l18,51H234.75ZM228.27,54,223,37.55h-.44L217.47,54Z"/><path class="cls-1" d="M255.68,23.48h13.2l18.66,33.61h.22V23.48H299V74.59H285.65L267.13,42.22h-.22V74.59H255.68Z"/><path class="cls-2" d="M22.18,127.32H17v12.29H12.29V107.85H23.41a12.57,12.57,0,0,1,6.35,1.43,8.91,8.91,0,0,1,3.63,3.65,10.21,10.21,0,0,1,1.14,4.72,9.76,9.76,0,0,1-1.87,5.85A9.11,9.11,0,0,1,27,127l8,12.66H29.85ZM17,123.37h5.81a9.58,9.58,0,0,0,5.13-1.29A4.81,4.81,0,0,0,30,117.65a4.7,4.7,0,0,0-2.09-4.36A9.75,9.75,0,0,0,22.77,112H17Z"/><path class="cls-2" d="M70.69,112v9.53H84v3.77H70.69v10.12H86v4.17h-20V107.85H86V112Z"/><path class="cls-2" d="M117.11,107.85h5.36l15.7,24.37h.14V107.85H143v31.76h-5.45l-15.61-23.87h-.13v23.87h-4.68Z"/><path class="cls-2" d="M196.35,112h-9.13v27.59h-4.67V112h-9.12v-4.17h22.92Z"/><path class="cls-2" d="M242,130.86h-12.3l-3,8.75h-4.76l11.75-31.76h4.45l11.8,31.76h-4.77Zm-1.31-3.73L236,113.79h-.23l-4.67,13.34Z"/><path class="cls-2" d="M299,135.44v4.17H279.8V107.85h4.76l0,27.59Z"/></g></g></svg>